<svg width="185" height="57" viewBox="0 0 185 57" fill="none" xmlns="http://www.w3.org/2000/svg">
<g filter="url(#filter0_d_33_183)">
<path d="M4.04545 48V1.45454H13.8864V39.8864H33.8409V48H4.04545ZM81.3182 24.7273C81.3182 29.803 80.3561 34.1212 78.4318 37.6818C76.5227 41.2424 73.9167 43.9621 70.6136 45.8409C67.3258 47.7045 63.6288 48.6364 59.5227 48.6364C55.3864 48.6364 51.6742 47.697 48.3864 45.8182C45.0985 43.9394 42.5 41.2197 40.5909 37.6591C38.6818 34.0985 37.7273 29.7879 37.7273 24.7273C37.7273 19.6515 38.6818 15.3333 40.5909 11.7727C42.5 8.21212 45.0985 5.5 48.3864 3.63636C51.6742 1.75757 55.3864 0.81818 59.5227 0.81818C63.6288 0.81818 67.3258 1.75757 70.6136 3.63636C73.9167 5.5 76.5227 8.21212 78.4318 11.7727C80.3561 15.3333 81.3182 19.6515 81.3182 24.7273ZM71.3409 24.7273C71.3409 21.4394 70.8485 18.6667 69.8636 16.4091C68.8939 14.1515 67.5227 12.4394 65.75 11.2727C63.9773 10.1061 61.9015 9.52273 59.5227 9.52273C57.1439 9.52273 55.0682 10.1061 53.2955 11.2727C51.5227 12.4394 50.1439 14.1515 49.1591 16.4091C48.1894 18.6667 47.7045 21.4394 47.7045 24.7273C47.7045 28.0152 48.1894 30.7879 49.1591 33.0455C50.1439 35.303 51.5227 37.0152 53.2955 38.1818C55.0682 39.3485 57.1439 39.9318 59.5227 39.9318C61.9015 39.9318 63.9773 39.3485 65.75 38.1818C67.5227 37.0152 68.8939 35.303 69.8636 33.0455C70.8485 30.7879 71.3409 28.0152 71.3409 24.7273ZM119.472 16.5C119.153 15.3939 118.706 14.4167 118.131 13.5682C117.555 12.7045 116.85 11.9773 116.017 11.3864C115.199 10.7803 114.259 10.3182 113.199 10C112.153 9.68182 110.994 9.52273 109.722 9.52273C107.343 9.52273 105.252 10.1136 103.449 11.2955C101.661 12.4773 100.267 14.197 99.267 16.4545C98.267 18.697 97.767 21.4394 97.767 24.6818C97.767 27.9242 98.2595 30.6818 99.2443 32.9545C100.229 35.2273 101.623 36.9621 103.426 38.1591C105.229 39.3409 107.358 39.9318 109.812 39.9318C112.04 39.9318 113.941 39.5379 115.517 38.75C117.108 37.947 118.32 36.8182 119.153 35.3636C120.002 33.9091 120.426 32.1894 120.426 30.2045L122.426 30.5H110.426V23.0909H129.903V28.9545C129.903 33.0455 129.04 36.5606 127.312 39.5C125.585 42.4242 123.206 44.6818 120.176 46.2727C117.146 47.8485 113.676 48.6364 109.767 48.6364C105.403 48.6364 101.57 47.6742 98.267 45.75C94.964 43.8106 92.3883 41.0606 90.5398 37.5C88.7064 33.9242 87.7898 29.6818 87.7898 24.7727C87.7898 21 88.3352 17.6364 89.4261 14.6818C90.5322 11.7121 92.0777 9.19697 94.0625 7.13636C96.0473 5.07576 98.358 3.50757 100.994 2.43182C103.631 1.35606 106.487 0.81818 109.562 0.81818C112.199 0.81818 114.653 1.20454 116.926 1.97727C119.199 2.73485 121.214 3.81061 122.972 5.20454C124.744 6.59848 126.191 8.25757 127.312 10.1818C128.434 12.0909 129.153 14.197 129.472 16.5H119.472ZM180.068 24.7273C180.068 29.803 179.106 34.1212 177.182 37.6818C175.273 41.2424 172.667 43.9621 169.364 45.8409C166.076 47.7045 162.379 48.6364 158.273 48.6364C154.136 48.6364 150.424 47.697 147.136 45.8182C143.848 43.9394 141.25 41.2197 139.341 37.6591C137.432 34.0985 136.477 29.7879 136.477 24.7273C136.477 19.6515 137.432 15.3333 139.341 11.7727C141.25 8.21212 143.848 5.5 147.136 3.63636C150.424 1.75757 154.136 0.81818 158.273 0.81818C162.379 0.81818 166.076 1.75757 169.364 3.63636C172.667 5.5 175.273 8.21212 177.182 11.7727C179.106 15.3333 180.068 19.6515 180.068 24.7273ZM170.091 24.7273C170.091 21.4394 169.598 18.6667 168.614 16.4091C167.644 14.1515 166.273 12.4394 164.5 11.2727C162.727 10.1061 160.652 9.52273 158.273 9.52273C155.894 9.52273 153.818 10.1061 152.045 11.2727C150.273 12.4394 148.894 14.1515 147.909 16.4091C146.939 18.6667 146.455 21.4394 146.455 24.7273C146.455 28.0152 146.939 30.7879 147.909 33.0455C148.894 35.303 150.273 37.0152 152.045 38.1818C153.818 39.3485 155.894 39.9318 158.273 39.9318C160.652 39.9318 162.727 39.3485 164.5 38.1818C166.273 37.0152 167.644 35.303 168.614 33.0455C169.598 30.7879 170.091 28.0152 170.091 24.7273Z" fill="white"/>
</g>
<defs>
<filter id="filter0_d_33_183" x="0.0454712" y="0.818176" width="184.023" height="55.8182" filterUnits="userSpaceOnUse" color-interpolation-filters="sRGB">
<feFlood flood-opacity="0" result="BackgroundImageFix"/>
<feColorMatrix in="SourceAlpha" type="matrix" values="0 0 0 0 0 0 0 0 0 0 0 0 0 0 0 0 0 0 127 0" result="hardAlpha"/>
<feOffset dy="4"/>
<feGaussianBlur stdDeviation="2"/>
<feComposite in2="hardAlpha" operator="out"/>
<feColorMatrix type="matrix" values="0 0 0 0 0 0 0 0 0 0 0 0 0 0 0 0 0 0 0.25 0"/>
<feBlend mode="normal" in2="BackgroundImageFix" result="effect1_dropShadow_33_183"/>
<feBlend mode="normal" in="SourceGraphic" in2="effect1_dropShadow_33_183" result="shape"/>
</filter>
</defs>
</svg>
